<svg xmlns="http://www.w3.org/2000/svg" viewBox="0 0 512 512" fill="none">
  <defs>
    <linearGradient id="bg" x1="80" y1="64" x2="408" y2="456" gradientUnits="userSpaceOnUse">
      <stop stop-color="#268178" />
      <stop offset="1" stop-color="#06313f" />
    </linearGradient>
    <radialGradient id="warm" cx="0" cy="0" r="1" gradientUnits="userSpaceOnUse" gradientTransform="translate(98 86) rotate(45) scale(190)">
      <stop stop-color="#ffe8b2" stop-opacity="0.78" />
      <stop offset="1" stop-color="#ffe8b2" stop-opacity="0" />
    </radialGradient>
    <radialGradient id="cool" cx="0" cy="0" r="1" gradientUnits="userSpaceOnUse" gradientTransform="translate(430 424) rotate(90) scale(168)">
      <stop stop-color="#a6e3e0" stop-opacity="0.45" />
      <stop offset="1" stop-color="#a6e3e0" stop-opacity="0" />
    </radialGradient>
  </defs>
  <rect width="512" height="512" rx="112" fill="url(#bg)" />
  <rect width="512" height="512" rx="112" fill="url(#warm)" />
  <rect width="512" height="512" rx="112" fill="url(#cool)" />
  <g opacity="0.12" fill="#fff">
    <rect x="46" y="78" width="64" height="64" rx="16" />
    <rect x="64" y="184" width="52" height="52" rx="14" />
    <rect x="72" y="294" width="56" height="56" rx="15" />
    <rect x="402" y="72" width="60" height="60" rx="15" />
    <rect x="378" y="300" width="70" height="70" rx="18" />
  </g>
  <g opacity="0.14" fill="#fff">
    <rect x="60" y="96" width="12" height="28" rx="5" />
    <rect x="82" y="104" width="18" height="8" rx="4" />
    <rect x="82" y="118" width="14" height="8" rx="4" />
    <rect x="79" y="199" width="10" height="24" rx="4" />
    <rect x="96" y="206" width="12" height="7" rx="3.5" />
    <rect x="94" y="219" width="10" height="7" rx="3.5" />
    <rect x="89" y="312" width="10" height="26" rx="4" />
    <rect x="106" y="320" width="13" height="7" rx="3.5" />
    <rect x="104" y="333" width="10" height="7" rx="3.5" />
    <rect x="417" y="87" width="11" height="26" rx="4" />
    <rect x="436" y="95" width="16" height="8" rx="4" />
    <rect x="435" y="108" width="13" height="8" rx="4" />
    <rect x="395" y="319" width="12" height="32" rx="4.5" />
    <rect x="416" y="329" width="18" height="8" rx="4" />
    <rect x="414" y="344" width="14" height="8" rx="4" />
  </g>
  <rect x="116" y="112" width="280" height="294" rx="56" fill="#112836" fill-opacity="0.12" />
  <rect x="112" y="102" width="288" height="298" rx="58" fill="#faf8f1" />
  <rect x="120" y="110" width="272" height="282" rx="48" fill="#fff" fill-opacity="0.55" />
  <rect x="170" y="124" width="172" height="36" rx="15" fill="#084f4a" fill-opacity="0.12" />
  <rect x="189" y="134" width="15" height="15" rx="6" fill="#084f4a" fill-opacity="0.34" />
  <rect x="220" y="134" width="15" height="15" rx="6" fill="#084f4a" fill-opacity="0.24" />
  <rect x="251" y="134" width="15" height="15" rx="6" fill="#084f4a" fill-opacity="0.18" />
  <path d="M202 181v194M202 199l136-29M202 267l116-26" stroke="#1b3a3a" stroke-width="38" stroke-linecap="round" stroke-opacity="0.12" />
  <path d="M198 173v192M198 192l138-29M198 260l118-26" stroke="#0d6f68" stroke-width="31" stroke-linecap="round" />
  <rect x="158" y="358" width="39" height="24" rx="9" fill="#eef0ea" />
  <rect x="207" y="358" width="39" height="24" rx="9" fill="#eef0ea" />
  <rect x="256" y="358" width="39" height="24" rx="9" fill="#eef0ea" />
  <rect x="305" y="358" width="39" height="24" rx="9" fill="#eef0ea" />
  <rect x="330" y="104" width="34" height="34" rx="13" fill="#ffe8b2" fill-opacity="0.38" />
  <circle cx="347" cy="121" r="10" fill="#fff" fill-opacity="0.25" />
</svg>
